PathFileType	4	(X/Y/Z)	D:\TRACE\v60_Jaco2_6-2-23\JustBodyDRS_Motion3_1-platform.trc
DataRate	CameraRate	NumFrames	NumMarkers	Units	OrigDataRate	OrigDataStartFrame	OrigNumFrames
100.00	100.00	      67	5	mm	100.00	5251	      7000
Frame#	Time	Left_Front			Right_Front			Left_Aft			Right_Aft			Post			
		X1	Y1	Z1	X2	Y2	Z2	X3	Y3	Z3	X4	Y4	Z4	X5	Y5	Z5	

5251	52.500	-797.89691	0.16793	-652.60779	772.53186	-1.43266	-630.36517	-729.54608	17.24642	480.72025	684.95630	16.03093	586.35217	-1.81971	1293.74463	-984.48413	
5252	52.510	-797.82361	0.04342	-652.57703	772.54828	-1.38270	-630.36481	-729.47882	17.28493	480.76511	685.05341	16.10357	586.40247	-1.69288	1293.50879	-984.34119	
5253	52.520	-797.76483	0.31681	-652.72565	772.59686	-1.46127	-630.35071	-729.40320	17.34883	480.79346	685.10413	16.26627	586.49329	-1.72639	1293.39856	-984.28943	
5254	52.530	-797.74536	0.27846	-652.71570	772.72961	-1.49271	-630.22400	-729.26794	17.38395	480.78314	685.20471	16.33591	586.46851	-1.70670	1293.33496	-984.28674	
5255	52.540	-797.68048	0.08921	-652.64197	772.71075	-1.56555	-630.27264	-729.22577	17.42120	480.77524	685.18970	16.31450	586.37689	-1.74697	1293.20325	-984.33380	
5256	52.550	-797.69812	-0.21181	-652.59747	772.74548	-1.60124	-630.33167	-729.15955	17.40319	480.71161	685.20532	16.32446	586.31738	-1.57285	1293.03101	-984.38867	
5257	52.560	-798.19745	-0.16014	-653.23096	772.77661	-1.73855	-630.36877	-729.17590	17.37615	480.72385	685.28265	16.36127	586.37543	-1.42417	1292.91882	-984.50085	
5258	52.570	-797.54614	-0.05120	-652.69763	772.90143	-1.76013	-630.33093	-729.19421	17.50539	480.54974	685.43805	16.39991	586.48651	-1.49509	1292.85828	-984.86066	
5259	52.580	-797.89227	0.10676	-653.34015	772.99347	-1.66753	-630.31116	-729.27039	17.80601	480.55063	685.30426	16.50732	586.74438	-1.53416	1292.91382	-985.11237	
5260	52.590	-797.40399	0.01665	-652.68268	773.03229	-1.60275	-630.33435	-729.17395	17.89111	480.52322	685.60773	16.37667	586.41779	-1.63732	1292.96521	-985.50623	
5261	52.600	-797.41125	-0.05956	-652.65619	773.09967	-1.65866	-630.35345	-729.23425	17.88327	480.72104	685.52228	16.42337	586.57147	-1.63572	1292.97791	-985.87488	
5262	52.610	-797.40723	-0.04845	-652.72797	773.19226	-1.75937	-630.30927	-729.18091	17.87248	480.55579	685.73779	16.29050	586.35944	-1.47734	1292.91162	-985.89484	
5263	52.620	-797.77417	0.07570	-653.24304	773.17682	-1.72775	-630.28412	-729.11298	17.64625	480.54221	685.52161	16.45815	586.74976	-1.26947	1292.78918	-985.73120	
5264	52.630	-797.56702	0.19181	-653.23102	773.25586	-1.74691	-630.26233	-729.01678	17.62351	480.64987	685.79504	16.41775	586.48901	-1.12793	1292.76904	-985.54694	
5265	52.640	-797.51178	0.23642	-653.25739	773.27521	-1.78807	-630.41064	-728.93085	17.72096	480.68536	685.90021	16.37834	586.48651	-1.07472	1292.76672	-985.47363	
5266	52.650	-797.60474	0.21570	-653.39142	773.32288	-1.78896	-630.43872	-728.84271	17.69903	480.66266	685.89349	16.36801	586.27863	-1.10072	1292.84375	-985.20587	
5267	52.660	-797.62531	0.19230	-653.47467	773.36786	-1.78058	-630.44183	-728.68176	17.54713	480.70844	685.90045	16.31611	586.29584	-1.06812	1292.85266	-985.00299	
5268	52.670	-797.43970	0.15443	-653.33496	773.30811	-1.79872	-630.33795	-728.59613	17.51130	480.79233	685.95306	16.29852	586.38739	-1.26912	1292.60974	-984.48303	
5269	52.680	-797.26538	0.12026	-653.17944	773.35840	-1.80396	-630.33655	-728.47040	17.53046	480.82507	686.02008	16.33468	586.52887	-0.79702	1292.83203	-984.61334	
5270	52.690	-797.05389	0.10160	-653.18146	773.43097	-1.77798	-630.32050	-728.38025	17.52471	480.76309	686.05609	16.37689	586.52728	-0.72574	1292.84766	-984.61255	
5271	52.700	-797.12238	0.14868	-653.25043	773.63702	-1.73713	-630.40820	-728.25671	17.56939	480.73291	686.05621	16.34613	586.43481	-0.68085	1292.89172	-984.71252	
5272	52.710	-797.09949	-0.07784	-653.50616	773.71216	-1.67635	-630.41608	-728.22144	17.56207	480.71494	686.03265	16.34496	586.36871	-0.60019	1292.96533	-984.82568	
5273	52.720	-797.20526	0.02967	-653.28809	773.75391	-1.70158	-630.34692	-728.18402	17.54573	480.71976	686.03802	16.33097	586.38678	-0.57659	1292.98035	-984.94269	
5274	52.730	-796.94080	-0.01517	-653.31000	773.80334	-1.67690	-630.31293	-728.13397	17.46157	480.74203	686.06458	16.29521	586.38660	-0.41297	1292.99597	-985.04816	
5275	52.740	-796.73303	0.06351	-653.19165	773.82410	-1.61817	-630.29718	-728.06274	17.45734	480.73932	686.11798	16.29416	586.45203	-0.28130	1293.09558	-985.22168	
5276	52.750	-796.61487	0.12180	-653.02643	773.94513	-1.49911	-630.27667	-728.00671	17.42913	480.68982	686.18628	16.26715	586.50287	-0.14820	1293.35815	-985.26233	
5277	52.760	-796.58588	0.25026	-653.17432	774.05676	-1.36733	-630.25781	-727.97345	17.41618	480.67950	686.16473	16.22841	586.48529	-0.16865	1293.55310	-985.24493	
5278	52.770	-796.40137	0.24620	-653.32306	774.12390	-1.28047	-630.25214	-727.98175	17.40967	480.65198	686.21826	16.20337	586.49225	-0.27381	1293.74622	-985.01404	
5279	52.780	-796.35077	0.35051	-653.24243	774.07153	-1.26927	-630.30194	-727.97906	17.38369	480.69238	686.30170	16.12610	586.52448	-0.41358	1293.79724	-984.71655	
5280	52.790	-796.21826	0.34993	-653.20667	774.14362	-1.23874	-630.25055	-727.95215	17.29543	480.72116	686.40552	16.15646	586.69269	-0.36980	1293.85657	-984.30298	
5281	52.800	-796.17670	0.37531	-653.17255	774.19299	-1.11930	-630.26508	-727.86090	17.23108	480.75522	686.47583	16.07842	586.67114	-0.11359	1293.95667	-983.71405	
5282	52.810	-796.15503	0.47995	-653.12244	774.24902	-1.03228	-630.23822	-727.81494	17.20707	480.70358	686.55554	16.04067	586.64783	-0.08100	1293.98108	-983.23322	
5283	52.820	-796.15533	0.76682	-653.11719	774.29376	-1.00219	-630.23895	-727.74835	17.13202	480.75388	686.63751	15.92819	586.55560	0.08459	1294.11182	-982.76904	
5284	52.830	-796.08917	0.92506	-653.03278	774.35339	-0.88716	-630.21198	-727.68707	17.10734	480.72122	686.72217	15.84978	586.64087	0.09741	1294.22546	-982.52679	
5285	52.840	-795.99774	1.03557	-652.97638	774.43738	-0.76940	-630.16229	-727.61047	16.95778	480.82202	686.76135	15.67306	586.60089	0.10345	1294.47827	-982.28210	
5286	52.850	-795.91968	1.22691	-652.92609	774.55487	-0.54174	-630.08301	-727.46808	16.71563	480.93665	686.35901	14.90858	586.53137	0.21283	1294.75342	-982.05969	
5287	52.860	-795.84680	1.45684	-653.00775	774.68219	-0.30616	-630.10950	-727.31683	16.66582	481.03912	686.63538	14.87449	586.53522	0.26942	1295.00977	-981.95605	
5288	52.870	-795.61304	1.63447	-652.90363	774.82001	-0.34379	-630.02136	-727.17596	16.47918	481.10431	686.79535	14.83614	586.63043	-0.01908	1295.08984	-981.76935	
5289	52.880	-795.55786	1.72490	-652.98022	774.88806	-0.21202	-629.98761	-727.14606	16.29610	481.19293	686.84076	14.78013	586.66327	-0.03095	1295.19458	-981.65308	
5290	52.890	-795.46820	1.90318	-652.86682	774.90961	-0.03225	-630.01788	-727.07745	16.15152	481.30753	686.79773	14.62436	586.67578	0.31635	1295.54810	-981.74457	
5291	52.900	-795.33673	1.96901	-652.93884	774.88513	0.16251	-629.99323	-727.04126	16.09675	481.30991	686.82880	14.53755	586.73981	0.27743	1295.63391	-981.65649	
5292	52.910	-795.36517	1.94881	-652.91577	774.99536	0.16498	-629.92059	-726.88031	16.06801	481.34689	686.93958	14.53600	586.70337	0.35724	1295.79114	-981.42151	
5293	52.920	-795.31769	1.97350	-653.00598	775.01849	0.30767	-629.94861	-726.81757	16.00167	481.35007	686.89771	14.34521	586.56110	0.44528	1295.99988	-981.07306	
5294	52.930	-795.32593	1.96993	-652.98010	775.05621	0.48094	-629.92798	-726.76715	15.97784	481.37784	686.91791	14.22114	586.74377	0.61443	1296.15454	-980.62952	
5295	52.940	-795.28564	2.05752	-652.93018	775.08344	0.54844	-629.91046	-726.86523	15.84815	481.41483	687.40356	14.65715	586.88727	0.84901	1296.26355	-980.16339	
5296	52.950	-795.31177	2.24014	-652.88837	775.21124	0.48195	-630.22186	-726.85400	15.77250	481.46515	687.50006	14.52877	586.94733	0.88286	1296.57898	-979.82172	
5297	52.960	-795.26080	2.44679	-652.85504	775.11865	0.97007	-629.82410	-726.76080	15.73346	481.52905	687.60065	14.39065	587.01239	0.95667	1296.96643	-979.43146	
5298	52.970	-795.31641	2.69172	-652.76117	775.20386	1.27580	-629.77356	-726.71149	15.71149	481.45944	687.53815	14.14194	586.99628	0.91410	1297.27893	-979.19873	
5299	52.980	-795.24231	2.92086	-652.75073	775.33502	1.46324	-629.63104	-726.72009	15.62713	481.48318	687.60028	13.94883	587.03510	0.84229	1297.49341	-978.81866	
5300	52.990	-795.17133	3.05937	-652.61963	775.36981	1.55323	-629.56897	-726.70032	15.50650	481.52695	687.83716	14.03379	587.13824	0.76376	1297.60535	-978.31647	
5301	53.000	-795.09674	3.14206	-652.52747	775.41632	1.64157	-629.54193	-726.62506	15.39543	481.60699	687.91565	13.98325	587.26813	1.05878	1297.75586	-977.63586	
5302	53.010	-795.01813	3.25655	-652.40863	775.44702	1.79455	-629.52734	-726.56787	15.30081	481.64893	688.02167	13.91454	587.29370	1.07479	1297.98706	-977.17139	
5303	53.020	-794.99152	3.31352	-652.37726	775.56757	1.93130	-629.51361	-726.45496	15.26535	481.67606	688.27570	14.03383	587.31281	1.10781	1298.24731	-976.84473	
5304	53.030	-794.65063	3.45173	-652.08807	775.65735	2.16145	-629.50061	-726.43005	15.23223	481.63925	688.20380	13.86960	587.29608	1.04330	1298.46326	-976.63892	
5305	53.040	-794.44788	3.54345	-651.94922	775.61542	2.29044	-629.48468	-726.41162	15.12206	481.65005	688.04590	13.58644	587.32196	1.01179	1298.68408	-976.50958	
5306	53.050	-794.49646	3.61262	-652.00385	775.66058	2.28945	-629.42737	-726.42737	15.00024	481.72852	688.08643	13.51851	587.36945	1.11697	1298.98853	-976.29645	
5307	53.060	-794.75153	3.74827	-652.13318	775.66614	2.43308	-629.33655	-726.32397	14.84528	481.78897	688.05383	13.30454	587.42346	1.21225	1299.29529	-976.09961	
5308	53.070	-795.00690	3.96800	-652.25793	775.69336	2.62847	-629.30908	-726.24176	14.70329	481.86636	687.96265	13.11437	587.42383	1.20000	1299.43909	-976.04681	
5309	53.080	-794.82306	4.12252	-652.39075	775.68188	2.83218	-629.24542	-726.09253	14.57868	481.87601	687.97272	12.95659	587.43549	1.21445	1299.76343	-976.07385	
5310	53.090	-794.88171	4.36981	-652.41461	775.69458	2.94149	-629.22845	-726.04449	14.42584	481.87219	687.93256	12.85488	587.42047	1.11682	1300.01929	-975.92963	
5311	53.100	-794.95551	4.64561	-652.43420	775.61987	3.02593	-629.24176	-726.06812	14.25744	481.93460	687.94946	12.69895	587.46252	1.05682	1300.12476	-975.61505	
5312	53.110	-794.97272	4.90899	-652.35931	775.61755	3.12797	-629.18860	-726.05859	14.07238	481.94107	687.97174	12.55455	587.51685	1.24362	1300.21436	-975.11469	
5313	53.120	-794.97424	5.01213	-652.28589	775.64532	3.28793	-629.18256	-726.02844	13.96957	481.92645	687.90363	12.41341	587.55475	1.47289	1300.34949	-974.45081	
5314	53.130	-794.93152	5.16855	-652.17975	775.67358	3.39539	-629.16412	-726.04236	13.89357	481.94113	687.95313	12.35677	587.61005	1.40309	1300.46252	-974.02551	
5315	53.140	-794.93201	5.32578	-652.18958	775.77808	3.57406	-629.15247	-726.02405	13.83309	482.00766	687.89221	12.20881	587.75775	1.22236	1300.73157	-973.41669	
5316	53.150	-794.85083	5.53476	-652.19672	775.72260	3.67871	-629.15643	-726.01587	13.71191	481.97501	687.91083	12.16947	587.73236	1.31252	1300.91516	-972.95453	
5317	53.160	-794.79291	5.54756	-652.21155	775.68457	3.72218	-629.14014	-726.02686	13.59563	481.97229	687.89990	12.09847	587.79150	1.27815	1301.09204	-972.59418	
